<svg xmlns="http://www.w3.org/2000/svg" width="556" height="566.667" version="1.0" viewBox="0 0 417 425">
    <path d="M104.3.7c57.7.2 151.7.2 209 0C370.6.6 323.5.5 208.5.5 93.6.5 46.7.6 104.3.7zM284 57.9c-6.4 2.6-10 6.2-10 9.9 0 3.9-1.4 4.8-4.2 2.8-2.6-1.9-9.1-2.1-15.2-.5-3.7.9-4.7.8-7.7-1-5-3.1-10.2-2.8-12.9.6-2.1 2.7-2.2 3.4-1.5 14.7.7 12.5.4 13.5-3.7 13.6-1.2 0-1.8-.8-1.8-2.3 0-1.2-1.6-4.9-3.4-8.2-2.5-4.5-4.4-6.5-7.4-8-3.4-1.6-4.1-2.5-4.6-5.6-.7-4.4-4-7.4-9.9-9-5.2-1.4-7.4-.7-13.6 4.2-4 3.2-5.4 5-6.2 8.4-1 4-1.4 4.4-5.4 5.4-5.2 1.3-8.2 4.7-9 10.4-.9 6 1.2 11.6 5.5 14.5 1.9 1.3 3.4 2.6 3.3 3-.1.3-2.1 1.2-4.5 1.9s-6.2 2.8-8.5 4.8l-4.2 3.6-4.8-3.7c-18.7-14.4-48.6-15.2-68-1.8C63.7 131.1 57.8 158 71 185.5c4.5 9.4 11.7 17.8 19.9 23.3l6 3.9-3.5 3.4c-4.2 4.1-5.5 8.3-4.3 14.1 1.5 7 4.9 12.1 9.6 14.3l4.1 2 7.2 19c10.9 28.8 25.8 66.2 28.7 71.9 4 8 6.8 11.2 12.5 14 4.5 2.2 5.3 3.1 5.4 5.6.3 6.1 1.6 10 4.1 13.1 5.1 6 12.5 7.4 19.9 3.8 6-2.8 8.9-7.8 9.1-15.4l.1-6 21.9-2.2c12-1.2 22.3-2.2 22.9-2.2.7-.1 1.1 2.3 1 6.7 0 5.3.5 7.6 2.4 11.2 4.9 8.7 14.7 12.8 24.7 10.1 7.7-2.1 14.3-12.2 14.3-21.9 0-1.6.7-3.5 1.5-4.2.8-.7 1.5-2.1 1.5-3.1 0-2.4.5-2.6 8.6-3.9 13.6-2.2 18.3-6.1 20.5-17.4 1-4.7.9-5.9-.4-8-1.5-2.2-1.4-3 .4-10.7 5.8-24.3 10.2-46.2 14.3-70.9 2.5-15.1 5.3-31 6.2-35.2 1.7-7.7 1.7-7.7 5.7-9 5.5-1.8 8-5.4 8.5-12.6.4-5.2.1-6.1-2.4-9.1l-2.8-3.4 2.8-11.1c4.2-16.4 3.7-15.6 9.4-15.6s8.7-1.9 10.7-6.7c1.9-4.6 1.9-7.3-.1-10.1-1.5-2.2-1.5-2.5.6-4.7 2.7-2.9 3.8-11 2-14.4-2.5-4.7-23.7-12.1-34.6-12.1-4.4 0-5.4-.3-5.9-2-1-3.1-8.3-8.8-13.6-10.5-4.1-1.4-4.9-2.1-5.4-4.8-1.5-7.2-4-14-6.2-16.3-2.7-2.9-7.7-3.1-14.3-.5zm11.5-.3c2.2.9 5.2 7.2 6.9 14.5.8 3.3 1.6 6.2 1.8 6.4.2.1 3.1 1.5 6.6 3 5.7 2.6 12.2 8.1 12.2 10.5 0 .6 2.2 1 4.8 1 9.3 0 29.7 6.4 34 10.7 3.3 3.3 2.7 10.1-1.4 14.4-2.7 2.8-2.7 2.9-.9 4.9 2.7 3 1.6 10.7-2.1 13.8-2.4 2.1-3.4 2.3-7.5 1.8l-4.7-.6-1.6 4.7c-.8 2.7-2.7 9.4-4.2 15l-2.7 10.3 2.6 2c3.2 2.5 4.2 7.3 2.8 12.7-1.3 4.8-3.9 7.3-8.3 8.2-4.3.9-4.4 1.4-11.3 42.4-3.1 18.3-8.1 44.2-11.1 57.6-4.7 20.7-5.4 24.8-4.3 26.7 1.6 3 .6 11.6-1.8 15.7-3.1 5.3-6.8 6.8-22.5 9.2-3.1.5-3.8 1-3.8 2.9 0 1.3-.8 3.4-1.9 4.7-1.1 1.5-2 4.7-2.3 8.1-1 12.4-11.8 20-23.6 16.9-9.4-2.6-14.9-11.3-13.9-22.1l.5-6H235c-1.5 0-9 .6-16.6 1.4-7.7.8-17.6 1.7-22.1 2.1l-8.3.7.6 5.2c1.1 10-5.9 18-15.8 18-8.4 0-13.9-5.8-14.6-15.4l-.4-6-5.3-2.4c-9.7-4.4-12.4-9.8-37.1-75-6.2-16.4-11.4-29.9-11.6-30-6.7-3-8.5-4.5-11-9.5-1.8-3.5-2.8-7-2.8-9.8 0-3.7.6-5 4-8.7 2.2-2.4 4-4.7 4-5.2-.1-.5-2.6-2.5-5.7-4.4-10.8-6.9-19.4-18.3-23.7-32-6.7-21.1-2.9-39 11.3-53 11.4-11.2 21.2-15 39.1-15 5.8 0 12.5.5 15 1.1 6.4 1.5 15.8 6.2 20.8 10.4l4.2 3.7 3.9-3.5c3.2-2.8 8.4-5.4 14.9-7.3 2.4-.7 1.2-3.4-2.2-4.8-4.9-2-6.6-5.1-6.6-11.7 0-7.4 2.2-10.3 9-11.9 4.5-1.1 5-1.5 5-4 0-4.4.8-5.7 6.2-10 5.6-4.4 9.3-5.1 15.4-2.5 3.6 1.5 7.1 7.3 6 10.1-.3.7.4 1.6 1.7 1.9 1.2.3 3.2 1.1 4.5 1.7 2.6 1.3 9.2 12.6 9.2 15.8 0 1.8.5 2.1 3.8 1.8l3.7-.3V85.2c0-12.8.1-13.4 2.4-15.3 3.1-2.5 5.6-2.4 10.6.6 2.3 1.3 4.4 2.2 4.7 2 .2-.2 3.6-.9 7.6-1.5 6.3-1 7.6-.9 9.7.4 4.3 2.8 6.2 2.1 6.8-2.5.7-5.2 1.9-6.4 9.3-9.4 6.2-2.6 8.2-2.9 10.9-1.9z"/>
    <path d="M286.2 62.2c-5.8 1.9-8.2 5-8.2 10.8v5h-5.1c-4.8 0-5 .1-6.5 3.7-.9 2.1-4.4 6.3-7.8 9.4-3.8 3.5-7 7.6-8.5 10.8-1.4 2.8-3 5.1-3.8 5.1-2 0-1.6-2 2.1-9.5 3.9-7.8 5.4-9.8 10.9-13.9 2.3-1.8 3.7-3.7 3.7-5.1 0-1.3.9-2.7 2.3-3.4 3.3-1.7-10-.4-13.5 1.4-2.6 1.2-3 1.1-5.9-1.6-2.2-2.1-4-2.9-5.8-2.7l-2.6.3.3 11.6c.4 13.8-.9 20.3-3.8 19.4-6.3-2-15.2 4.1-20.9 14.4-1.9 3.4-3.7 6-4 5.8-.4-.2-2.1-.9-3.8-1.6-3.7-1.5-3.9-2.5-1.7-8.1 1.5-3.6 1.9-4 5.2-4 3 0 4.4-.8 8.4-5.1 5.3-5.7 6.2-9.4 2.8-12.4-1.1-1-2-2.6-2-3.6 0-2.4-4.7-5.9-8-5.9-3.1 0-4.3-1.9-3.4-5.5.9-3.6-1.2-6.3-5.7-7.5-4.5-1.2-5.6-.8-11.8 5-3 2.7-3.3 3.5-2.8 6.8.8 4.6-.3 6.6-3.2 5.7-2.8-.9-8.9 1.2-10.1 3.5-.5 1-.7 3.9-.4 6.5.7 4.7 3.1 7.5 6.6 7.5 2.3 0 3.8 3 3.8 7.9v4.1h-4.8c-3.6 0-6 .7-9.5 3-2.6 1.6-4.7 3.3-4.7 3.7-.1.5-.9 1.9-2 3.2l-2 2.3-5.2-4.8c-20.6-18.6-56.9-17-74.8 3.3-6.8 7.8-11 19-11 29.5 0 6.4 2.9 18.9 5.9 25.3 5.6 12 17.4 23.4 28.2 27.2 2.7 1 4.9 2 4.9 2.3 0 .3-2 1.6-4.6 2.9-6.4 3.4-9.4 7.3-9.4 12.2 0 7.2 5.5 14.9 10.6 14.9 1.8 0 3.3 3.1 11.4 24.7 12.5 33.6 24.6 63.6 28.3 70.7 3.7 6.9 8.6 10.6 15.2 11.4 3.8.4 4.5.8 3.8 2.1-.4.9-.8 4.4-.8 7.8 0 5.4.4 6.6 2.6 8.8 3.1 3.1 8.8 4.2 12.9 2.5 5.8-2.4 9-11.9 5.6-16.5-2.2-3-.3-5.3 4.7-5.9 2.3-.3 14.1-1.5 26.2-2.6s24-2.3 26.3-2.7l4.4-.6-2.1 4.1c-3 5.8-2.9 14.7.2 19.3 3.2 4.9 8 7.1 14.5 6.6 4.3-.3 5.9-1 8.8-3.7 3.8-3.8 5.9-9.7 5-14.3-.5-2.3-.1-3.3 1.4-4.4 1.5-1 2-2.5 2-5.7v-4.2l9.5-1.1c13.3-1.6 16.5-3.4 18.8-10.3 1.7-5.1 1.7-5.6.1-9.2-1.6-3.5-1.6-4.1 0-10.5 5.7-22.4 10.7-47.4 16.1-79.6 2.5-15 5.3-30.4 6.3-34.2l1.8-7 3.7-.2c4.7-.1 6.5-1.6 7.3-5.9.9-5-.2-8-3.5-9.4l-2.9-1.2 3.4-13.1c6.2-24 6.5-24.9 8.3-24.2.9.4 3.7.9 6.3 1.2 4.8.6 4.8.6 6.4-3.2.8-2 1.3-4.4 1-5.2-.3-.8-3-2.5-6.1-3.8-5-2.2-5.4-2.7-4.6-4.7.5-1.3 1.3-2.2 1.8-2.1 8 1.5 8 1.5 9.7-.8 2.7-3.9 2.1-7.6-1.6-9.9-4.6-2.8-18-6.9-24.9-7.7-5.7-.6-5.8-.5-7.7 2.6l-2 3.2-.7-3.8c-1.4-8-7.1-13.5-16.4-15.9l-4.5-1.1-1.6-7.4c-2.9-13.3-4.9-15.3-12.8-12.7zm7.8 5c.6 2.4 1.5 5.9 2.1 7.8 1.8 6.9 1.9 6.9-7.2 5.4-4.5-.7-8.3-1.5-8.5-1.7-.3-.2-.1-3 .2-6.2.7-5.5.9-5.8 4.8-7.6 6.2-2.8 7.4-2.5 8.6 2.3zm-91.8 10.6c-.2 1.8.2 4 .9 4.8 1 1.2.6 2.1-2.3 5.2-4.6 4.7-5.8 7.2-5.8 11.6 0 1.9-.5 3.8-1 4.1-1.5.9-4.9 7.9-5.9 12.2l-.9 3.8-.1-5.3c-.1-7.7-2.2-11.9-6.3-13-2.3-.6-3.3-1.4-3.3-2.8 0-1-.4-2.5-.9-3.2-.5-.9-.3-2 .8-3 1.4-1.4 2-1.5 4.9-.3 1.7.7 4.3 1.5 5.6 1.8 2.2.6 2.4.4 1.8-2.5-.4-2-.1-3.4.8-4.2 1.7-1.4 2-4 .5-4-2.1 0-.9-3.5 2.3-6.2 2.2-1.9 4.1-2.7 6.2-2.5 2.8.2 3 .5 2.7 3.5zm40.8 3.3.5 5.4 1.8-2.5c1-1.5 1.7-1.9 1.7-1 0 .9 1.1.1 2.6-1.8 1.5-1.9 3.4-3.2 4.7-3.2 1.9.1 2 .2.7 1.3-2.2 1.8-5.7 6.2-4.3 5.3.9-.5 1.1-.2.7.8-.3.9-1.2 1.6-1.9 1.6-.8 0-1.7.5-2.1 1.2-.5.7-.3.8.6.3.8-.5.5.5-.5 2.3-1 1.7-2.3 2.8-2.9 2.5-.5-.4-.7.1-.3 1 .3 1 .2 1.7-.2 1.7-.5 0-1.2 1.7-1.6 3.8-.3 2-1 4.4-1.5 5.2-1.6 2.6-2.2.3-.9-4.1.7-2.9.9-8 .5-15.2-.5-8.6-.4-10.8.6-10.5.8.3 1.5 2.8 1.8 5.9zm40 1.9c4.1.7 7.7 1.4 7.9 1.6.2.2-1.1 1.6-2.9 3.1-4.9 4.1-7.6 11-10.7 27.5-2.7 14.6-2.8 14.8-5.8 15.8-8.3 2.9-11.7 10-15.5 32.4-2.3 13.9-2.1 17.2 1.7 21.6 1.4 1.7 2.2 3 2 3-.3 0-5.8 1.1-12.3 2.5-6.4 1.4-11.9 2.3-12.2 2.1-.2-.3.8-6.1 2.3-12.8 2.4-11.2 5.5-20.9 14.4-46 3.8-10.7 3.9-14.7.5-21.5l-2.7-5.2 3-5.3c1.7-3 5.4-7.2 8.4-9.7 3-2.4 6-5.9 6.8-7.8 1.6-3.9.6-3.8 15.1-1.3zm-69.2 6.1c.2 1.2-.5 1.4-3 1.1-2.6-.3-4.3.4-8.3 3.5l-5 3.8 2.1-3.4c1.2-1.8 3.4-4.1 5-5.2 3.4-2.3 8.7-2.2 9.2.2zm95.3.2c6.2 3.3 8.4 7.6 8.2 15.7-.3 6.5-3.7 30.8-4.6 31.6-.5.5-33.6-6.2-34.4-6.9-.7-.8 4.6-27.5 6.3-31.6 4.3-10.2 14.7-13.9 24.5-8.8zM214 97.5c1.3 1.4 1.9 2.5 1.3 2.5-.5 0-1.8-.9-2.8-2-1-1.1-2.2-1.7-2.7-1.4-.5.3.1 1.7 1.3 3s1.8 2.4 1.2 2.4c-1.7 0-4.6-3.9-4-5.5.9-2.2 3-1.8 5.7 1zm127.9 6.1c8.2 2.6 8.5 2.7 5.7 3.7-2.2.7-4.8.5-10.3-.8-4.1-.9-7.7-1.4-8.1-1-1 1 1.6 2.2 7.9 3.5 4.6 1 5.9 1.7 5.9 3.1 0 2.3.5 2.3-8.2-.1-4.6-1.3-7.6-1.6-8.2-1-1.1 1.1-.9 1.1 8.2 3.6 4.8 1.3 6.2 2.1 6.2 3.5 0 2.3.3 2.3-8.1-.2-3.9-1.2-7.3-1.9-7.6-1.6-1.2 1.3 1.1 2.6 7.6 4.2l6.9 1.7-2.4 8.6c-1.3 4.8-4.3 15.4-6.5 23.7-2.3 8.2-4.3 15.2-4.5 15.4-.6.6-16.4-2.2-16.4-3 0-.4 3-11.9 6.6-25.5 3.7-13.7 7.5-28.4 8.6-32.7 2-7.5 2.1-7.7 5.1-7.7 1.7 0 6.9 1.2 11.6 2.6zM237 108.5c1.4.8 3.7 1.4 5.2 1.5 4 0 5.7 1 7.3 4.1 2.1 3.9 1.9 11-.4 17.2-1.1 2.8-3.8 10.1-6 16.1-4.5 11.8-9.4 29.2-11.2 39.9-.9 5.5-1.5 6.8-3.3 7.2-10.3 2.6-27.2 6.2-27.4 6-1.2-1.1-1.3-18-.2-28.1 2.6-26 12-51.7 22.3-61.5 4.2-4 9.3-4.9 13.7-2.4zm-106.9 7.9c17.1 3.7 30.3 16.1 36.6 34.5 3.6 10.5 2.9 22.8-1.9 34.2-1.9 4.3-6.2 9.1-7.3 8.1-.5-.4-.5-.2-.2.5.6.9-2.8 4.7-10.8 12-.8.8-4.3 1.3-9.3 1.3-4.5 0-9.8.6-12.2 1.5-3.9 1.4-5 1.4-10.9-.1-9.2-2.3-18.2-7.4-25-14.2-6.4-6.3-8.6-10.1-12.2-20.7-1.9-5.5-2.4-9-2.3-16.5.1-13.4 2.5-18.9 12.9-29.1 2.7-2.7 5.5-4.7 6.2-4.4.7.2 1.3-.1 1.3-.8 0-3.2 13.2-7.5 23.5-7.6 2.8 0 8 .6 11.6 1.3zM181 122c0 .5-.7 1-1.6 1-3.6 0-8.3 4.2-11 9.6-2.4 4.9-2.8 5.3-4 3.7-.7-1-1.4-2.3-1.4-2.8 0-2 5.2-8.7 8.3-10.6 3.4-2 9.7-2.6 9.7-.9zm1.4 6.6c2 1.9 2 2.4 0 5.2-1.2 1.7-2.4 2.2-4.7 2-2.7-.2-3.3-.8-3.5-3.1-.2-1.6.2-3.5.9-4.3 1.5-1.9 5.4-1.8 7.3.2zm111.8 8.1c17.3 3.6 17.7 3.7 18.3 6.4.8 3.7-4.8 25.2-7.5 28.6-1.1 1.4-2 3.6-2 5 0 1.3-.6 2.6-1.2 2.8-.7.3-8.7 1.9-17.8 3.5-9.1 1.7-17.3 3.3-18.2 3.6-1 .3-3-.7-5-2.5-3-2.7-3.3-3.4-3.1-8.3.4-8.7 5-30.5 7.4-34.8 1.4-2.5 3.7-4.7 6.3-6 2.3-1.1 4.3-2 4.6-2 .3 0 8.5 1.6 18.2 3.7zm27.7 35.3c5.8 1.5 7.5 3.2 6.7 6.5-.7 2.7-.9 2.7-5.4 2.1-12.9-1.9-15.2-1.9-15.2-.3 0 1.8 2.2 2.5 9 2.9 4 .3 4.5.6 4.8 2.9.2 1.5-.4 5.3-1.2 8.6-.9 3.3-3.4 17.8-5.6 32.3-4.5 29-5.6 34.9-13.1 68.5-2.8 12.6-5.2 23.9-5.5 25.1-.6 3.3-5 7-9.7 8.3-6.9 1.8-109.2 12.1-120.8 12.1-3.2 0-8.1-.5-11-1.2l-5.2-1.2-4.4-9.3c-6-12.8-10.8-24.9-23.9-59.8-6.1-16.5-11.8-30.3-12.5-30.7-.8-.4-2.6-.9-4.1-1.3-2.9-.6-6.8-6.5-6.8-10.4 0-1.6.5-1.8 3.8-1.4 2.5.3 11.2-1.4 27.7-5.6 55.3-13.9 125.6-29.6 161.7-36.1 11.9-2.1 13.8-3 13.8-6.5 0-1.2 1-3.5 2.2-5 1.9-2.5 2.6-2.7 6.6-2.1 2.5.3 6.1 1 8.1 1.6zm-127.6 18.5c2.2 1.9 2.7 3.3 2.7 6.7 0 4.3 0 4.3-4.6 5.4-4.4 1-4.5 1-3.9-1 .4-1.2.9-4.7 1.2-7.9.3-3.1.8-5.7 1.2-5.7.3 0 1.8 1.2 3.4 2.5zM143 211.1c5.1 1.1 6.8 2.9 2.8 2.9-1.3 0-8.1 1.5-15.3 3.4-7.1 1.9-13.2 3.2-13.4 3-1.3-1.3 7.1-7.8 11.5-9 6.2-1.6 8.1-1.7 14.4-.3zm121.9 136.3c1.7 2 2.5 10.7 1.2 13.8-1.2 3.2-6.5 6.8-9.9 6.8-3.8 0-7.8-2.7-9.6-6.4-2.1-4.4-2-5.6.3-5.6 1.3 0 2.3-1.1 3-3.3.6-1.7 2.2-4 3.4-4.9 2.7-2.1 10-2.4 11.6-.4zM180 359.2c0 4.4-2.5 6.8-7.1 6.8-3.3 0-4.1-.5-5.4-3-1.3-2.6-1.4-3-.1-3 .8 0 1.8.4 2.1 1 1.6 2.6 4.3 2.9 7 .8 2-1.6 2.5-2.6 2-4.5-.4-1.6-.2-2.2.5-1.8.5.3 1 2 1 3.7z"/>
    <path d="M288.1 100.2c-1.3 4.1-6.1 26.2-6.1 28.3 0 .8.4 1.5.8 1.5s2.3-6.4 4.1-14.3c1.8-7.8 3.5-15.2 3.8-16.5.8-3.5-1.4-2.6-2.6 1zM296 97.8c0 .7 1.2 1.4 2.8 1.8 1.5.3 4.8 1.2 7.5 1.9 5.7 1.6 7.4.1 2.3-2-5-2.1-12.6-3.1-12.6-1.7zM218 124c-.9 1.6-.8 2 .5 2 .8 0 1.5-.9 1.5-2s-.2-2-.5-2c-.2 0-.9.9-1.5 2zM232.5 129.3c-.4 1-.5 2.1-.1 2.4 1 1 1.8-.4 1.3-2.4-.4-1.7-.4-1.7-1.2 0zM242.4 129.4c-.8 2.2.3 3.3 1.8 1.8.9-.9.9-1.5 0-2.4-.9-.9-1.3-.7-1.8.6zM210.8 139.6c-.5.4-.8 1.9-.8 3.3 0 1.8.3 2.2 1.1 1.4.6-.6.9-2.1.7-3.3-.1-1.2-.6-1.8-1-1.4zM234.5 159.3c-.4 1-.5 2.1-.1 2.4 1 1 1.8-.4 1.3-2.4-.4-1.7-.4-1.7-1.2 0zM219 167.6c0 .8.5 1.2 1 .9.6-.3 1-1 1-1.6 0-.5-.4-.9-1-.9-.5 0-1 .7-1 1.6zM204 176c0 1.1.5 2 1 2 .6 0 1-.9 1-2s-.4-2-1-2c-.5 0-1 .9-1 2zM224.5 189.3c-.4 1-.5 2.1-.1 2.4 1 1 1.8-.4 1.3-2.4-.4-1.7-.4-1.7-1.2 0zM144 133.7c-2.7 1-5 3.6-5 5.7 0 5.6 6.9 9.2 11.5 6.2 6-3.9.3-14.3-6.5-11.9zm1 4.8c0 .8-.7 1.5-1.5 1.5s-1.5-.7-1.5-1.5.7-1.5 1.5-1.5 1.5.7 1.5 1.5zM112.2 137c-4.6 1.9-4.8 9.5-.3 11.9 8 4.3 15.5-5.3 8.5-10.8-2.9-2.3-4.6-2.5-8.2-1.1zm2.2 3.9c.7 1-1.8 3.4-2.7 2.5-.7-.8.3-3.4 1.3-3.4.5 0 1.1.4 1.4.9zM82.1 147.6c0 1.1.3 1.4.6.6.3-.7.2-1.6-.1-1.9-.3-.4-.6.2-.5 1.3zM81.3 157.5c0 2.7.2 3.8.4 2.2.2-1.5.2-3.7 0-5-.2-1.2-.4 0-.4 2.8zM103.5 165.1c.5 5.2 3.7 14.5 6 17.5.8 1 .3-.7-1.1-3.8-1.4-3.1-3.2-8.5-4-12-1.2-5.4-1.3-5.7-.9-1.7zM133.3 164.6c-.7 1.9.2 2.8 2.2 2.1 1.9-.8 1.9-2.3 0-3.1-.9-.3-1.8.1-2.2 1zM82.1 167.6c0 1.1.3 1.4.6.6.3-.7.2-1.6-.1-1.9-.3-.4-.6.2-.5 1.3zM114.8 200.7c.7.3 1.6.2 1.9-.1.4-.3-.2-.6-1.3-.5-1.1 0-1.4.3-.6.6zM124.7 201.7c1.8.2 5 .2 7 0 2.1-.2.7-.4-3.2-.4-3.8 0-5.5.2-3.8.4zM276.2 150.2c.5 1.5 5.8 2.4 5.8 1 0-1.1-2.4-2.2-4.7-2.2-.8 0-1.3.6-1.1 1.2zM293 153.4c0 1.6 1.4 2.1 8.3 3.1 3.1.4 4.7.3 4.7-.5 0-1.3-3.1-2.5-8.7-3.4-3.4-.5-4.3-.3-4.3.8zM266.6 158.6c-.9.8-1.6 1.9-1.6 2.4 0 .9 2.8 4 3.6 4 1.7 0 4.4-2.3 4.4-3.8 0-3.8-3.7-5.3-6.4-2.6zm3.4 2.4c0 .5-.4 1-1 1-.5 0-1-.5-1-1 0-.6.5-1 1-1 .6 0 1 .4 1 1zM287.7 159.1c-2.2 1.3-2.2 4.8-.1 5.6 2 .8 4.8-.8 5.2-3 .4-2.1-2.9-3.8-5.1-2.6zm2.3 2.9c0 .5-.2 1-.4 1-.3 0-.8-.5-1.1-1-.3-.6-.1-1 .4-1 .6 0 1.1.4 1.1 1zM280.3 167c-2.6 1.1-3.8 4.3-2.4 6.8 2.8 5.2 15.9 7.1 20.6 2.9 2.4-2.1 2.5-2.3 1-4.4-1-1.4-4.1-3-8.1-4.3-7.3-2.2-7.9-2.3-11.1-1zM297.6 166.8c-.9 1.4 2.1 3.5 4 2.8.8-.3 1.4-1.2 1.2-1.9-.6-1.5-4.4-2.2-5.2-.9zM260.6 168.6c-1.9 1.9-2 2.5-.3 4.8.9 1.3 2.3 1.7 5.2 1.4 3.4-.2 4.1-.7 4.3-2.7.7-4.4-5.9-6.9-9.2-3.5zm5.9 2.4c.4.6-.5 1-1.9 1s-2.6-.5-2.6-1c0-.6.9-1 1.9-1 1.1 0 2.3.4 2.6 1zM272.5 206.5c-28.9 6.3-97.2 21.7-130.5 29.5-12.6 2.9-18 4.6-19.1 6-1.6 1.8-1.3 2.9 4.3 17.7 5.9 15.4 7.2 18.2 8.3 17.2.3-.4-7.7-23.3-10.9-31-1.1-2.5 1.1-3.5 12.4-5.9 5.8-1.2 11.2-2.6 12.1-3.1 1.8-.9 17-4.2 17.3-3.7 1.8 2.5 3.6 5.4 3.6 5.9 0 .3-1.1.4-2.5.1-4.1-.7-2.9.6 3 3.3 9.1 4.3 22.5 18.2 22.5 23.3 0 .8-1.4 3-3.1 4.9-4.5 5.1-2.7 5.2 2.9.2 2.7-2.4 6.3-5.2 8-6.2l3.1-1.8 1.6 3.2c.9 1.7 1.9 2.9 2.1 2.6.5-.4-8-27.5-9.7-30.8-.8-1.7-.5-3.7 1.2-9.5.7-2.3 1.7-3.3 3.6-3.7 2.5-.5 2.5-.4 2 4.3-.3 2.6-.3 5.1 0 5.4.4.4 2.2-.8 4-2.6 4.1-4 4.2-3.2.3 2.9-1.6 2.6-3 5.7-3 7 0 3.9-1.9 2.5-3.1-2.2-1.1-4.3-2.9-6.2-2.9-3 0 2 6.6 22.4 9.1 28.3 2.5 5.7 3.3 5.1 1.4-1.1-.9-3.2-1.1-4.9-.3-5.3.5-.4 1.4-.1 1.8.6.8 1.4 7.5-10.1 11-18.9 2.1-5.5 8.5-16.7 11.8-20.9 1.4-1.8 4.3-2.9 12.6-4.8 6-1.3 11.3-2.4 11.9-2.4.6 0-.1 1.2-1.5 2.7-1.4 1.6-5.8 7.2-9.7 12.6-7.9 11-7.2 11-10.2.6-1-3.4-1.4-3.9-1.7-2.1-.3 1.8 3.3 14 9.4 32.2.3.9-.1.7-1.1-.5-1.6-2.1-9.5-25.3-9.5-28.2 0-1-.3-1.3-.9-.8-.6.6-.3 3.9.6 8.5l1.6 7.5-4.7 7.6c-4.8 8-5.2 8.9-3.7 8.9.5 0 2.4-2.6 4.2-5.8 5.2-9.2 4.9-9.1 8.5-1.3 3.3 7.2 4.3 8.1 6.2 5.8.7-.8.1-4-2-10.4l-3-9.2 4.3-6.3c2.3-3.5 7.1-10 10.7-14.5l6.4-8.2 9-2c4.9-1.2 9.6-2.1 10.4-2.1 1 0-.3 2.2-3.4 5.7-8.1 9.5-25.4 33.3-25 34.5.5 1.3 1.3.3 18.3-22.5 6.9-9.2 12.5-17.1 12.5-17.6 0-.4 4.5-1.7 10.1-2.8 11.2-2.3 11.6-2.1 10.6 4-.3 1.8-2 11.4-3.7 21.5-3.9 23.1-6.2 30.8-9.3 31.6-5.8 1.4-13.7 1.8-13.7.7 0-.6.6-1.4 1.4-1.7.8-.3 1.4-1.3 1.3-2.3 0-.9 3-6.7 6.7-12.9 3.7-6.3 6.6-11.6 6.3-11.8-.5-.5-9.8 13.2-12.7 18.6l-1.4 2.5-1.2-4c-2.3-7.4-1.9-8.9 5.8-19.2 4-5.4 8.8-12.1 10.6-14.8l3.3-5-3.1 3.5c-1.7 1.9-6.7 8.2-11.2 13.9l-8.2 10.4-1.5-4.9c-1-3.2-1.6-4.2-1.8-2.9-.2 1.1 1.2 7.8 3.2 14.9 1.9 7.1 3.3 13.1 3 13.4-.7.8-2.5-4.4-5.4-16.1-1.6-5.9-3.1-11-3.4-11.4-1-.9-.8 3.6.3 8.5 1 4.1.9 4.6-2.5 9.2s-4.3 7-2.7 7c.4 0 2-2.1 3.6-4.7 2.9-4.5 3-4.6 3.9-2.2.5 1.3 1.6 4 2.4 6 1.9 4.7 1.4 7.2-1.7 8.1-2.1.6-43.4 6.8-118 17.5-9.6 1.4-17.6 2.6-17.7 2.7-.1.1.2 1.8.8 3.8.9 3.5 1.1 3.6 4.2 2.8 1.7-.5 11.3-2 21.2-3.4 30-4.3 82.7-11.6 87-12.1 2.2-.2 7.3-.9 11.4-1.5 4-.6 7.5-.9 7.8-.7.2.3-.5 2.3-1.6 4.6-1.2 2.2-2.1 4.6-2.1 5.3 0 1.8-3.4 9.8-4.2 9.8-.3 0-3.5-1.3-7-3-3.4-1.6-7.1-3-8.1-3-1.1 0-2.1-.9-2.4-2-.3-1.1-1-2-1.5-2s-.7.8-.4 1.7c.3 1 1.7 5.8 3.1 10.8 1.5 4.9 3.5 11 4.6 13.4 2.1 4.8 2.3 6.1 1 6.1-1.2 0-5.3-11.5-8.2-22.6l-2.3-9.2-6.1-.6c-3.3-.3-7.3-.8-9-1.1-2.5-.5-2.7-.4-1.2.5 1 .7 4.8 1.5 8.5 1.8 5.1.5 6.8 1.1 7 2.4.2 1.1-.8 2-3.2 2.8-3.4 1.1-10.3 7.7-9.2 8.7.3.3 1.7-.8 3-2.4 2.9-3.4 8.3-6.1 9.5-4.7.4.5 1.6 3.9 2.5 7.5 1 3.6 2.8 9 4.2 11.9 1.3 2.8 2.4 5.4 2.4 5.7 0 .7-9.2-.9-13.4-2.3-4.6-1.7-5.6-1.7-5.6-.4 0 .5 3.2 1.9 7.1 3.1 6.9 2.1 14 2.2 21.9.4 1.5-.3.9.2-1.5 1.5-5.1 2.5-12.4 2.5-19 .1-2.7-1.1-7.2-2.7-10-3.7-2.7-1.1-5.3-2.3-5.6-2.8-.4-.5-2.4-5.9-4.4-12-3.9-11.4-6.3-16.1-5-9.6 1.1 5.5 9.4 30.1 10.6 31.6.9 1.1.8 1.4-.2 1.4-1.7 0-6.8-12.3-10-24.2-1.3-4.9-2.8-8.8-3.2-8.8-.9 0-.1 5 2.3 13.8l1.7 6.3-2.1-.7c-3.2-1-7.9-3.5-10-5.3-2.5-2.2-5-7.2-3.9-8 .4-.3.6-3.3.3-6.6-.5-5.1-.7-5.6-1.4-3.2-.4 1.5-.6 4.3-.4 6.2.2 1.9.3 3.5.2 3.5-1 0-10.2-5.6-11.2-6.8-1.2-1.5-1.3-1.3-1 1.3.2 1.9.8 2.9 1.6 2.7 1.2-.2 6.8 3.8 9.7 7 5.6 6.2 9.2 8.9 13.6 10.6 4.7 1.7 5.5 2.4 7.5 7.1l2.3 5.1-2.2.5c-6 1.3-28 2.4-29.7 1.5-1-.5-7.7-1-14.9-.9-7.2 0-13.6-.3-14.1-.6-.6-.3-1-2-1-3.6 0-1.8-.4-2.8-1-2.4-.5.3-1 1.7-1 3.1 0 4.1-1.9 2.7-4.6-3.4-5-11.2-5-10.6-.7-9.9 2.1.3 4.7.9 5.9 1.2 1.7.5 2.5-.1 4.1-3.2 2.5-4.9 7.7-6.6 11.8-3.9 3.8 2.5 4.5 1 1-1.9l-3-2.4 3.2-.1c3.1 0 3.3.3 4.8 5.7 2.3 8.3 5.5 16 7.1 17.4 1.9 1.6 1.8 0-.4-5.3-1.1-2.4-2.9-8.2-4.2-13.1-1.3-4.8-2.7-8.7-3.2-8.7-.4 0-.8.4-.8.9 0 .6-1.5.7-3.4.4-2.8-.4-3.7-.1-4.8 1.6-.7 1.1-2 2.1-3 2.1-2.2 0-7.8 4.8-7.8 6.7 0 1.1-.7 1.3-3.2.7-1.8-.4-4.6-.7-6.1-.6-2.2.1-3.1-.5-4.4-3.3-1.4-3-3.3-4.7-3.3-3 0 1.3 11.3 28.4 13 31.2 1.1 1.8 3.1 3.5 4.6 3.9 5.2 1.3 120.2-10.4 125-12.7 2.5-1.3 3-2.4 5.5-13.9 3.3-14.8 3.7-18.2 2.4-18.4-.5 0-2.4 6.2-4 13.9l-3 14-9 1.1c-5 .6-9.2 1-9.4.8-.8-.7 1.5-2.6 8.8-7.4 10.8-7 12.8-11.7 6.7-16.4-6.3-4.8-8-5.1-12.7-2.7-2.3 1.2-4.3 2-4.6 1.7-1.4-1.3 2.9-5.8 7.9-8.4l5.7-2.9 1 2.9c1.5 4.2 2.1 3.4 1.6-2l-.5-4.7 1.1 4.5c1.2 5 2.9 7.6 2.9 4.4 0-1-.4-3.5-1-5.4-.9-3.2-.7-3.7 2.7-7.2 2.4-2.4 5-4 7.2-4.4 6.2-1 7.1-1.5 8.6-4.4 2.5-4.8 2-7-1.6-7-2.8 0-3.1-.3-2.5-2.3 2.3-7.8 4.9-20.5 7.5-35.7 2.7-16.1 2.9-17.6 1.4-19.2-.9-1-2.6-1.8-3.7-1.7-1.2 0-15.1 2.9-31.1 6.4zM233 218.4c0 .3-.4.8-1 1.1-.5.3-1 .1-1-.4 0-.6.5-1.1 1-1.1.6 0 1 .2 1 .4zm-5.6 2.2c.7 1.9-.8 7.6-3.2 12.1l-1.7 3.1-2.7-2.3c-1.5-1.3-3-3.5-3.4-5-.9-3.7-3-4.2-6.5-1.6l-2.9 2.2v-2.6c0-1.4.7-2.8 1.6-3.2 1.2-.4 14.2-3.5 17.5-4.2.4 0 1 .6 1.3 1.5zm-30.9 7.1c-1.4 3.5-1.8 9.3-.6 9.3.6 0 1.1 1 1.1 2.2 0 2.1 1.6 9 3.4 14.6.8 2.3.7 2.3-1.8.7-1.4-1-4-1.5-5.9-1.4-2.8.3-4.3-.5-8.6-4.1-2.9-2.5-6.6-5.7-8.3-7.1-4.5-3.7-3-5.3 4.3-4.6 6.6.6 7.8-.8 3.3-3.7-1.4-1-2.3-2.3-2.1-2.9.2-.7 3.5-2 7.3-2.9 8.9-2.1 8.7-2.1 7.9-.1zm-18.1 4.8c.4 1.1-.1 1.5-1.7 1.5-1.2 0-2.8.4-3.6.9-1 .7-1.9.4-2.7-.7-1-1.4-1-1.8.4-2.4 3-1.2 7-.8 7.6.7zm40.3 12.7c-2.8 6.1-7.3 11.8-9.3 11.8-2.1 0-1.7-1 1.1-3.2 1.4-1.1 4.2-5.2 6.2-9.2 4.1-8 5.8-7.5 2 .6zm-10.7 3.3c0 .8-.4 1.5-.9 1.5s-1.1-.7-1.5-1.5c-.3-.9 0-1.5.9-1.5.8 0 1.5.7 1.5 1.5zm-13.1 10.2c1.3 4.7.8 5.1-1.8 1.5-2.5-3.5-2.7-5.2-.6-5.2.8 0 1.8 1.6 2.4 3.7zm7.9 2.2c.2.6-.2 1.1-.9 1.1-1.5 0-5.9-3.9-5.9-5.3 0-1.1 6.3 2.8 6.8 4.2zm83.2 10.9c0 .4-1.3 1.9-3 3.3-2.4 2.2-3 2.4-3.3 1-.3-1.1-.5-.9-.6.6-.1 1.5-1.6 3.1-4.6 4.9-2.5 1.4-4.8 2.4-5.1 2.1-.3-.3.7-3 2.3-5.9 2.5-4.8 3.2-5.4 6.8-5.9 6.2-.9 7.5-1 7.5-.1zm-28.6 21.1c6.9 3.7 7.9 3.8 13.3.9l4.2-2.2 4.3 3c2.4 1.6 4.4 3.9 4.6 5 .6 4.2-12.1 13.1-20 14-8.9 1.1-9.3 1-9.3-1.1 0-1.2.8-2.1 2-2.3 4-.8 4.1-2.4.2-2l-3.9.3-2.9-9c-1.6-5-2.9-9.6-2.9-10.2 0-1.5 2.1-.8 10.4 3.6z"/>
    <path d="M254 294.9c0 1 3 2.4 3.7 1.7.3-.2-.5-.9-1.6-1.6-1.2-.6-2.1-.7-2.1-.1zM272.3 300.1c-2.4 1.1-4.3 2.6-4.3 3.4 0 1.9 3.5 2.9 5.7 1.6 1-.6 1.2-1.1.6-1.1-2.1 0-1.4-1.6 1.2-2.8 1.4-.6 2.5-1.6 2.5-2.2 0-1.3-.7-1.2-5.7 1.1zM161.7 241.7c-1.9 3 4.2 22.6 8.5 27.6l2.9 3.2-2-4c-1.8-3.8-6.1-17.2-7.9-24.5-.4-1.9-1.1-2.9-1.5-2.3zM165 243.6c0 1.9 4.9 17.3 6.9 22 3.7 8.3 3.2 4.1-1-8.7-3.8-11.3-5.9-16.1-5.9-13.3zM182 291.9c0 3.7 8.1 27.4 9.1 26.4.6-.6-.7-6.1-3.3-14.6-4-12.7-5.8-16.4-5.8-11.8zM233.6 296.5c-.9 2.6-.7 3.2.5 1.2.6-1 .9-2.1.6-2.3-.2-.3-.7.2-1.1 1.1zM168.6 307.2c-2.4 3.4-2 7.3 1.1 9.7 3.5 2.8 4 2 1.2-1.8-1.9-2.6-2.1-3.4-1.1-5.6 1-2.1 1.6-2.4 4.4-1.9l3.3.5-2.5-1.5c-3.4-2.1-4.6-2-6.4.6zM192.6 307.8c-.3.5.8.6 2.5.4 1.6-.2 2.9-.6 2.9-.8 0-.8-4.9-.4-5.4.4zM177.3 316.1c1.1.7 2.3.7 3.5 0 1.4-.9 1.1-1-1.8-1-2.9 0-3.2.1-1.7 1zM194.7 319.8c-1 1-1.7 2.5-1.7 3.3 0 .8.6.5 1.6-.9.8-1.2 2.4-2.2 3.4-2.2s2.2-.5 2.5-1c1.1-1.8-4.1-1.1-5.8.8zM254.9 348.9c-2.7 2.2-3.3 8.7-1 11.5 1.8 2.1 5.4 2 7.4-.2 2.6-2.8 2.2-9.7-.5-11.6-2.8-2-3.1-2-5.9.3zm4.1 5.5c0 1.4-.5 2.8-1 3.1-1.3.8-2.4-2-1.6-4 .9-2.4 2.6-1.7 2.6.9zM207.3 115.5c-.3.9-.3 1.8 0 2.1.9.9 2.7-.6 2.7-2.2 0-1.9-1.9-1.8-2.7.1z"/>
</svg>